<?xml version="1.0" encoding="UTF-8"?>
<svg width="40px" height="40px" viewBox="0 0 40 40" version="1.1" xmlns="http://www.w3.org/2000/svg" xmlns:xlink="http://www.w3.org/1999/xlink">
    <!-- Generator: sketchtool 51.1 (57501) - http://www.bohemiancoding.com/sketch -->
    <title>FACCDAF0-7345-46F3-86D5-E6FA2783F5A5</title>
    <desc>Created with sketchtool.</desc>
    <defs></defs>
    <g id="Products" stroke="none" stroke-width="1" fill="none" fill-rule="evenodd">
        <g id="Fixed-Savings-Plan-More-Info" transform="translate(-1840.000000, -999.000000)">
            <g id="Footer" transform="translate(0.000000, 980.000000)">
                <g id="C-Net" transform="translate(1836.000000, 15.000000)">
                    <g id="Button/cnet">
                        <g id="Cnet" transform="translate(4.000000, 4.000000)">
                            <path d="M6,0.5 C2.96243388,0.5 0.5,2.96243388 0.5,6 L0.5,35 C0.5,37.4852814 2.51471863,39.5 5,39.5 L35,39.5 C37.4852814,39.5 39.5,37.4852814 39.5,35 L39.5,5 C39.5,2.51471863 37.4852814,0.5 35,0.5 L6,0.5 Z" id="Border" stroke="#FFFFFF"></path>
                            <path d="M15.813624,25.4254682 C15.0882412,25.4271131 14.5006811,26.1335759 14.4982631,27.0020564 C14.5006811,27.8664248 15.0890471,28.569598 15.813624,28.569598 L25.6385315,28.5704204 C26.3614964,28.5712428 26.9506685,27.8656024 26.9482505,27.0004116 C26.9506685,26.5793301 26.8136517,26.1862111 26.5670215,25.8876709 C26.3155555,25.5924204 25.9883272,25.4271131 25.6369196,25.4262906 L15.813624,25.4254682 Z M29.8667075,21.0000007 L25.6772186,21.0008231 C24.3038271,20.9983559 23.0166756,21.6003708 22.0478865,22.6983078 C21.6392541,23.1572208 21.3144438,23.6835726 21.0653957,24.253513 L29.6055696,24.2592699 C30.7234652,24.2584475 31.6301937,25.6022895 31.6261638,26.9979443 C31.6301937,28.3960663 30.7234652,29.7415532 29.6055696,29.7399084 L21.0726496,29.7431981 C21.9068398,31.6684944 23.6517885,32.9991776 25.6780246,32.9991776 L29.8683194,32.9991776 C32.6981185,32.9983552 34.999194,30.1914195 35,27.0004116 C35,23.8061139 32.6981185,20.9983559 29.8667075,21.0000007 Z M9.31016389,26.9995891 C9.31258183,28.3960663 10.2185044,29.7382635 11.335594,29.7407308 L19.8652901,29.7431981 C19.0383537,31.6684944 17.2958229,33 15.2800646,33 L11.1091133,32.9983552 C8.29220997,32.9967103 5.99919423,30.192242 6.00000021,26.9987667 C5.99919423,23.8052915 8.29140399,21.0000007 11.1091133,21.0008231 L15.2800646,21.0000007 C16.6470083,21.0008231 17.9309359,21.6011932 18.8948891,22.6966629 C19.3011035,23.1572208 19.6267198,23.6843951 19.871738,24.253513 L11.334788,24.2568027 C10.2168924,24.2576251 9.31096987,25.6022895 9.31016389,26.9995891 Z" id="Fill-4" fill="#FFFFFF"></path>
                            <path d="M27.6624109,12.4204242 L27.6624109,12.2626699 C27.6624109,11.4746602 27.125,11.1599136 26.5771971,11.1599136 C26.0071259,11.1599136 25.3925178,11.4746602 25.3925178,12.341166 L25.3925178,12.4204242 L27.6624109,12.4204242 Z M24,13.6474025 L24,12.5217833 C24,10.9008002 25.1846793,10 26.5771971,10 C27.7937945,10 29,10.7316144 29,12.2626699 L29,13.1535628 C29,13.2770227 28.902019,13.3768576 28.7817696,13.3768576 L25.3925178,13.3768576 L25.3925178,13.6923663 C25.3925178,14.4239807 25.9737233,14.8515178 26.6863124,14.8515178 C27.08269,14.8515178 27.4961401,14.6160295 27.7908254,14.2593675 C27.8605998,14.1755366 27.9756532,14.1511495 28.0684382,14.2060206 L28.7461401,14.6061222 C28.8530285,14.6686143 28.8901425,14.8103645 28.8240796,14.9162962 C28.3579276,15.674584 27.5310273,16 26.6209917,16 C25.2388658,16 24,15.2234218 24,13.6474025 Z" id="Fill-6" fill="#FFFFFF"></path>
                            <path d="M30.9139013,14.4714142 L30.9139013,10.9865597 L30.2627803,10.9865597 C30.1174888,10.9865597 30,10.8814443 30,10.750652 L30,10.0726179 C30,9.94262788 30.1174888,9.83751254 30.2627803,9.83751254 L30.9139013,9.83751254 L30.9139013,8.23590772 C30.9139013,8.10511535 31.0313901,8 31.1775785,8 L32.2663677,8 C32.4116592,8 32.5300448,8.10511535 32.5300448,8.23590772 L32.5300448,9.83751254 L33.7372197,9.83751254 C33.8825112,9.83751254 34,9.94262788 34,10.0726179 L34,10.750652 C34,10.8814443 33.8825112,10.9865597 33.7372197,10.9865597 L32.5300448,10.9865597 L32.5300448,14.127984 C32.5300448,14.5781344 32.7955157,14.7081244 33.1659193,14.7081244 C33.3829596,14.7081244 33.5381166,14.7033099 33.7085202,14.6864594 C33.864574,14.6712136 34,14.780341 34,14.9207623 L34,15.6902708 C34,15.805015 33.909417,15.9029087 33.7829596,15.9229689 C33.4358744,15.9767302 33.0026906,16 32.8080717,16 C31.761435,16 30.9139013,15.5498495 30.9139013,14.4714142" id="Fill-8" fill="#FFFFFF"></path>
                            <path d="M12.4110835,9.90060725 C12.4110835,10.0292016 12.5136476,10.1280586 12.643507,10.1360957 L12.6451613,10.1377032 L13.7502068,10.1377032 C13.8883375,10.1377032 14,10.0292016 14,9.89498125 L14,9.86926237 C14,7.92748705 12.2903226,7 10.5814723,7 C8.62117452,7 7,8.14770495 7,10.2116449 L7,12.9957135 C7,14.9374888 8.69644334,16 10.6443342,16 C12.3540116,16 14,15.0717092 14,13.1299339 L14,13.104215 C14,12.9699946 13.8883375,12.8614931 13.7502068,12.8614931 L12.6583954,12.8614931 L12.6575682,12.8622968 C12.5268817,12.8655117 12.4226634,12.9611538 12.4160463,13.087337 L12.4143921,13.0881407 C12.4143921,13.0881407 12.4127378,13.1170745 12.4069479,13.180568 C12.3027295,14.1699411 11.4119107,14.5589391 10.6443342,14.5589391 C9.58891646,14.5589391 8.6592225,13.9601715 8.6592225,12.9105197 L8.6592225,10.1256474 C8.6592225,8.87988927 9.72704715,8.4410609 10.5814723,8.4410609 C11.3622829,8.4410609 12.3275434,8.84291838 12.4110835,9.87006608 L12.4110835,9.8708698 L12.4110835,9.87488837 L12.4110835,9.90060725 Z" id="Fill-10" fill="#FFFFFF"></path>
                            <path d="M16.2445344,7 L17.4526316,7 C17.5368421,7 17.6137652,7.04403212 17.6591093,7.11631127 L21.4008097,13.1345888 L21.4251012,13.1345888 L21.4251012,7.25090003 C21.4251012,7.1121573 21.5352227,7 21.6704453,7 L22.7554656,7 C22.8906883,7 23,7.1121573 23,7.25090003 L23,15.7491 C23,15.8878427 22.8906883,16 22.7554656,16 L21.5352227,16 C21.4518219,16 21.3732794,15.9559679 21.3287449,15.8836887 L17.5991903,9.85294932 L17.5748988,9.85294932 L17.5748988,15.7491 C17.5748988,15.8878427 17.4647773,16 17.3295547,16 L16.2445344,16 C16.1093117,16 16,15.8878427 16,15.7491 L16,7.25090003 C16,7.1121573 16.1093117,7 16.2445344,7" id="Fill-12" fill="#FFFFFF"></path>
                            <path d="M12,11.7306889 L12,11.2693111 C12,11.1203897 12.1410326,11 12.3163043,11 L14.6836957,11 C14.8581522,11 15,11.1203897 15,11.2693111 L15,11.7306889 C15,11.8796103 14.8581522,12 14.6836957,12 L12.3163043,12 C12.1410326,12 12,11.8796103 12,11.7306889" id="Fill-14" fill="#FFFFFF"></path>
                        </g>
                    </g>
                </g>
            </g>
        </g>
    </g>
</svg>