<?xml version="1.0" encoding="UTF-8"?>
<svg width="40px" height="40px" viewBox="0 0 40 40" version="1.1" xmlns="http://www.w3.org/2000/svg" xmlns:xlink="http://www.w3.org/1999/xlink">
    <!-- Generator: sketchtool 51.1 (57501) - http://www.bohemiancoding.com/sketch -->
    <title>EC01C832-47C9-40CD-B5C2-B3EC849E664D</title>
    <desc>Created with sketchtool.</desc>
    <defs></defs>
    <g id="Products" stroke="none" stroke-width="1" fill="none" fill-rule="evenodd">
        <g id="Fixed-Savings-Plan-More-Info" transform="translate(-1560.000000, -999.000000)">
            <g id="Footer" transform="translate(0.000000, 980.000000)">
                <g id="STrack" transform="translate(1556.000000, 15.000000)">
                    <g id="Button/strack">
                        <g id="STrack" transform="translate(4.000000, 4.000000)">
                            <path d="M6,0.5 C2.96243388,0.5 0.5,2.96243388 0.5,6 L0.5,35 C0.5,37.4852814 2.51471863,39.5 5,39.5 L35,39.5 C37.4852814,39.5 39.5,37.4852814 39.5,35 L39.5,5 C39.5,2.51471863 37.4852814,0.5 35,0.5 L6,0.5 Z" id="Border" stroke="#FFFFFF"></path>
                            <path d="M10.3645833,28.0210612 L8.56791667,28.0210612 C8.46125,28.0210612 8.37458333,27.9361633 8.37458333,27.8324898 L8.37458333,27.1263673 C8.37458333,27.0218776 8.46125,26.9369796 8.56791667,26.9369796 L13.4429167,26.9369796 C13.5495833,26.9369796 13.63625,27.0218776 13.63625,27.1263673 L13.63625,27.8324898 C13.63625,27.9361633 13.5495833,28.0210612 13.4429167,28.0210612 L11.64625,28.0210612 L11.64625,33.528 C11.64625,33.6324898 11.5604167,33.7165714 11.45375,33.7165714 L10.5579167,33.7165714 C10.45125,33.7165714 10.3645833,33.6324898 10.3645833,33.528 L10.3645833,28.0210612 Z" id="Fill-4" fill="#FFFFFF"></path>
                            <path d="M27.4349167,26.9376327 L28.2340833,26.9376327 C28.3399167,26.9376327 28.4249167,27.0217143 28.42575,27.1253878 L28.43575,30.8551837 L30.1940833,28.9123265 C30.2299167,28.8715102 30.2824167,28.8486531 30.3374167,28.8486531 L31.2090833,28.8486531 C31.3790833,28.8486531 31.4665833,29.0470204 31.3490833,29.1670204 L29.8824167,30.6837551 L31.56075,33.4298776 C31.63825,33.5555918 31.54575,33.7172245 31.39575,33.7172245 L30.5165833,33.7172245 C30.44825,33.7172245 30.3849167,33.6813061 30.35075,33.6225306 L29.0765833,31.491102 L28.4249167,32.1768163 L28.4249167,33.5270204 C28.4249167,33.6315102 28.3399167,33.7172245 28.23325,33.7172245 L27.4349167,33.7172245 C27.32825,33.7172245 27.2424167,33.6315102 27.2424167,33.5270204 L27.2424167,27.1253878 C27.2424167,27.0225306 27.32825,26.9376327 27.4349167,26.9376327" id="Fill-6" fill="#FFFFFF"></path>
                            <path d="M17.2265833,29.5619592 C16.7749167,29.0705306 16.05575,28.7333878 15.3474167,28.7333878 C14.22325,28.7333878 13.25075,29.4280816 13.2065833,30.4925714 C13.20575,30.4974694 13.2049167,30.5023673 13.2049167,30.5056327 L13.2049167,33.5105306 C13.2049167,33.6248163 13.29825,33.7162449 13.4149167,33.7162449 L14.17825,33.7162449 C14.2924167,33.7162449 14.38825,33.6248163 14.38825,33.5105306 L14.38825,30.6835918 C14.38825,30.1137959 14.83075,29.8027755 15.33575,29.8027755 C15.80075,29.8027755 16.13325,29.9219592 16.4224167,30.1962449 C16.4949167,30.2648163 16.60575,30.2762449 16.68825,30.2207347 L17.1924167,29.8729796 C17.2990833,29.8019592 17.31325,29.6558367 17.2265833,29.5619592" id="Fill-8" fill="#FFFFFF"></path>
                            <path d="M19.4254167,31.5884898 L20.5895833,31.5884898 L20.5895833,31.8268571 C20.5895833,32.3493061 20.4354167,32.8056327 19.48375,32.8056327 C18.9304167,32.8056327 18.59125,32.5966531 18.59125,32.1876735 C18.59125,31.7599184 18.92125,31.5884898 19.4254167,31.5884898 M21.7745833,30.2097143 C21.7745833,30.1656327 21.7729167,30.1231837 21.7695833,30.0807347 C21.69875,28.9950204 20.7145833,28.6603265 19.6495833,28.6603265 C18.7170833,28.6603265 17.6779167,29.0211429 17.6779167,30.086449 C17.6779167,30.1599184 17.7395833,30.2195102 17.8145833,30.2195102 L18.5720833,30.2195102 C18.6679167,30.2195102 18.74625,30.1427755 18.74625,30.0480816 C18.74625,29.7346122 19.1254167,29.5631837 19.6395833,29.5631837 C20.24125,29.5631837 20.5895833,29.7819592 20.5895833,30.2954286 L20.5895833,30.7419592 L19.01875,30.7419592 C18.16875,30.7419592 17.4545833,31.399102 17.4379167,32.2235918 C17.4379167,32.239102 17.43625,32.2537959 17.43625,32.2693061 L17.43625,32.279102 C17.43625,32.2921633 17.4379167,32.3052245 17.43875,32.319102 C17.4404167,32.3607347 17.4420833,32.4031837 17.4470833,32.4431837 C17.4470833,32.444 17.4470833,32.4448163 17.4479167,32.4456327 C17.5370833,33.2284898 18.1879167,33.7901224 19.1879167,33.7901224 L19.35125,33.7901224 C19.9504167,33.7950204 20.4020833,33.7125714 20.7429167,33.5860408 C21.6620833,33.2456327 21.7695833,32.6399184 21.7745833,32.4595102 C21.7870833,31.9966531 21.7745833,30.4023673 21.7745833,30.2097143" id="Fill-10" fill="#FFFFFF"></path>
                            <path d="M26.73175,32.0229388 C26.73175,32.0213061 26.7309167,32.0188571 26.7309167,32.0164082 C26.7300833,32.0074286 26.72925,32.0000816 26.7284167,31.9927347 C26.7275833,31.9886531 26.7275833,31.9853878 26.72675,31.9821224 C26.7125833,31.8988571 26.6634167,31.8555918 26.6184167,31.833551 C26.5925833,31.8180408 26.5634167,31.8082449 26.5334167,31.8082449 L26.3409167,31.8082449 L25.9659167,31.8082449 L25.77425,31.8082449 C25.76925,31.8082449 25.7650833,31.8090612 25.7600833,31.8098776 L25.75175,31.8098776 L25.7509167,31.8106939 C25.6600833,31.8213061 25.59175,31.8915102 25.5784167,31.9886531 C25.5784167,31.9894694 25.57675,31.9919184 25.57675,31.9927347 C25.5150833,32.5592653 25.0550833,32.7886531 24.60425,32.7886531 C23.97175,32.7886531 23.5175833,32.4278367 23.5175833,31.8098776 L23.5175833,30.6694694 C23.5175833,29.9364082 24.0609167,29.6702857 24.5650833,29.6702857 C25.03175,29.6702857 25.5434167,29.9168163 25.58175,30.5266122 L25.5825833,30.5282449 C25.59425,30.6213061 25.67425,30.6947755 25.7734167,30.6947755 L25.79675,30.6947755 C25.7975833,30.6955918 25.8000833,30.6972245 25.8000833,30.6972245 L26.5109167,30.6972245 L26.5125833,30.6955918 L26.5334167,30.6955918 C26.6400833,30.6955918 26.7259167,30.6115102 26.7259167,30.5070204 L26.7259167,30.4678367 C26.7259167,30.4204898 26.7234167,30.3788571 26.7200833,30.3388571 C26.72175,30.3331429 26.72175,30.3266122 26.7209167,30.3200816 C26.7200833,30.3127347 26.7184167,30.3062041 26.71675,30.3004898 C26.71175,30.2498776 26.7034167,30.2057959 26.6925833,30.1682449 C26.4750833,29.1715102 25.5134167,28.6915102 24.5650833,28.6915102 C23.3325833,28.6915102 22.28425,29.4523265 22.28425,30.8204898 L22.28425,31.7715102 C22.28425,33.0645714 23.3809167,33.758449 24.60425,33.758449 C25.6109167,33.758449 26.55175,33.2221224 26.7259167,32.1037551 C26.7309167,32.073551 26.73175,32.0482449 26.7309167,32.0237551 L26.73175,32.0229388 Z" id="Fill-12" fill="#FFFFFF"></path>
                            <path d="M12.347,20.8223673 L14.5903333,18.8574694 C14.8078333,18.6672653 15.1453333,18.6786939 15.3386667,18.8917551 C16.382,20.0493061 18.062,20.8566531 19.8728333,20.8566531 C21.3228333,20.8566531 22.8811667,20.4101224 22.8811667,19.0942041 C22.8811667,17.9366531 21.9128333,17.5154286 20.7328333,17.2003265 L17.4286667,16.3578776 C14.8236667,15.6737959 12.8895,14.2003265 12.8895,11.1750204 C12.8895,7.67542857 15.9511667,5.14971429 20.1953333,5.14971429 C23.3436667,5.14971429 25.3078333,5.85583673 26.9278333,7.58644898 C27.1303333,7.80195918 27.1086667,8.14155102 26.8811667,8.33420408 L24.647,10.2329796 C24.4328333,10.4150204 24.1161667,10.3937959 23.9136667,10.1978776 C22.9545,9.26971429 21.532,8.83216327 20.1953333,8.83216327 C18.7986667,8.83216327 17.5903333,9.30644898 17.5903333,10.5962449 C17.5903333,11.6746122 18.7453333,12.0427755 20.1953333,12.4117551 L23.2028333,13.2011429 C25.9428333,13.8844082 27.7961667,15.4901224 27.7961667,18.4101224 C27.7961667,22.4884898 24.0361667,24.5407347 20.0878333,24.5407347 C16.9145,24.5407347 14.127,23.741551 12.2878333,21.5448163 C12.107,21.3284898 12.1336667,21.0093061 12.347,20.8223673" id="Fill-14" fill="#FFFFFF"></path>
                        </g>
                    </g>
                </g>
            </g>
        </g>
    </g>
</svg>