<?xml version="1.0" encoding="UTF-8"?>
<svg width="22px" height="28px" viewBox="0 0 22 28" version="1.1" xmlns="http://www.w3.org/2000/svg" xmlns:xlink="http://www.w3.org/1999/xlink">
    <!-- Generator: sketchtool 51.3 (57544) - http://www.bohemiancoding.com/sketch -->
    <title>5A4C581E-65DA-4818-8393-8B841E53CBDE-594-000000DC099A0B44</title>
    <desc>Created with sketchtool.</desc>
    <defs></defs>
    <g id="Savings-Calculator" stroke="none" stroke-width="1" fill="none" fill-rule="evenodd">
        <g id="Landing---Client-Profile" transform="translate(-1592.000000, -27.000000)" fill="#009DE0">
            <g id="Header">
                <g transform="translate(22.000000, 0.000000)" id="Icon/Casper-Blue">
                    <g transform="translate(1565.000000, 25.000000)">
                        <g id="Group-2" transform="translate(5.000000, 2.000000)">
                            <path d="M20.8792093,20.3687423 C20.8792093,21.5756903 19.960161,22.5543938 18.830404,22.5543938 L8.36894391,22.5543938 L4.53247746,26.3783876 C4.16597891,26.745252 3.93957919,26.8133669 3.92500892,26.8241219 C3.8902644,26.784687 3.80508431,26.5516623 3.86224464,26.0198882 L4.23210556,22.5543938 L3.16959601,22.5543938 C2.03983901,22.5543938 1.12079067,21.5756903 1.12079067,20.3687423 L1.12079067,9.19073023 C1.12079067,7.98736716 2.03983901,7.00507874 3.16959601,7.00507874 L18.830404,7.00507874 C19.960161,7.00507874 20.8792093,7.98736716 20.8792093,9.19073023 L20.8792093,20.3687423 Z M11.0005604,1.19499808 C11.3917163,1.19499808 11.7100209,1.53437753 11.7100209,1.95262686 C11.7100209,2.36968119 11.3917163,2.71145064 11.0005604,2.71145064 C10.6082837,2.71145064 10.2899791,2.36968119 10.2899791,1.95262686 C10.2899791,1.53437753 10.6082837,1.19499808 11.0005604,1.19499808 Z M10.6049213,5.81008066 L11.0420297,3.90286373 C12.0294462,3.87657377 12.8308116,3.01617515 12.8308116,1.95262686 C12.8308116,0.875933592 12.009272,0 11.0005604,0 C9.990728,0 9.16918845,0.875933592 9.16918845,1.95262686 C9.16918845,2.62063079 9.4863722,3.21215484 9.9671914,3.56348427 L9.45274848,5.81008066 L3.16959601,5.81008066 C1.42228336,5.81008066 0,7.32772822 0,9.19073023 L0,20.3687423 C0,22.1636294 1.31917061,23.637062 2.9779408,23.7434168 L2.74817872,25.8824634 C2.60247593,27.2352012 3.09674461,27.7132005 3.40384126,27.8793052 C3.51928269,27.9414451 3.68067655,28 3.88914361,28 C4.23770951,28 4.71404554,27.8350903 5.29909827,27.2531262 L8.81053543,23.7493918 L18.830404,23.7493918 C20.5777166,23.7493918 22,22.2341343 22,20.3687423 L22,9.19073023 C22,7.32772822 20.5777166,5.81008066 18.830404,5.81008066 L10.6049213,5.81008066 Z" id="Fill-1"></path>
                            <g id="Group" transform="translate(5.000000, 11.000000)">
                                <path d="M0.144545455,2 L1.48909091,2 C1.77181818,2 2,1.77171442 2,1.48976808 L2,0.144611187 C2,0.0636653024 1.93454545,0 1.85363636,0 L0.144545455,0 C0.0645454545,0 0,0.0636653024 0,0.144611187 L0,1.85538881 C0,1.93542519 0.0645454545,2 0.144545455,2" id="Fill-4"></path>
                                <path d="M10.1445455,2 L11.4890909,2 C11.7718182,2 12,1.77171442 12,1.48976808 L12,0.144611187 C12,0.0636653024 11.9345455,0 11.8536364,0 L10.1445455,0 C10.0645455,0 10,0.0636653024 10,0.144611187 L10,1.85538881 C10,1.93542519 10.0645455,2 10.1445455,2" id="Fill-6"></path>
                            </g>
                            <path d="M3.88262788,17.0786687 C3.61267122,16.926952 3.25619,17.0012408 3.08775551,17.2460802 C2.91932101,17.4930122 3.00007728,17.8142331 3.27234125,17.9680425 C5.62811684,19.2968715 8.29999552,20 11.0007157,20 C13.7014359,20 16.3733146,19.2968715 18.7279365,17.9680425 C18.9990468,17.8142331 19.0809568,17.4930122 18.9125223,17.2450339 C18.7440878,17.0012408 18.3852992,16.926952 18.1176499,17.0786687 C13.7775775,19.5343867 8.2296222,19.535433 3.88262788,17.0786687 Z" id="Fill-8"></path>
                        </g>
                    </g>
                </g>
            </g>
        </g>
    </g>
</svg>