<?xml version="1.0" encoding="UTF-8"?>
<svg width="214px" height="38px" viewBox="0 0 214 38" version="1.1" xmlns="http://www.w3.org/2000/svg" xmlns:xlink="http://www.w3.org/1999/xlink">
    <!-- Generator: sketchtool 51.3 (57544) - http://www.bohemiancoding.com/sketch -->
    <title>3AA7E89D-6827-4FC1-AEE4-EE05A70D96AF-594-000000DC099A9B23</title>
    <desc>Created with sketchtool.</desc>
    <defs></defs>
    <g id="Savings-Calculator" stroke="none" stroke-width="1" fill="none" fill-rule="evenodd">
        <g id="Landing---Client-Profile" transform="translate(-22.000000, -21.000000)">
            <g id="Header">
                <g transform="translate(22.000000, 0.000000)" id="Logo/Global-One-Logo">
                    <g transform="translate(0.000000, 21.000000)">
                        <g id="Global-One-Logo" transform="translate(130.000000, 0.000000)"></g>
                        <path d="M109.451051,27.027261 C109.451051,29.7228843 108.670693,32.076312 103.892296,32.076312 C101.113029,32.076312 99.4061744,30.9977963 99.4061744,28.8902525 C99.4061744,26.6839557 101.064463,25.8020584 103.5998,25.8020584 L109.451051,25.8020584 L109.451051,27.027261 Z M104.72122,10.704393 C100.040395,10.704393 94.822922,12.5676064 94.822922,18.0571622 C94.822922,18.4361961 95.1288843,18.7435508 95.5059286,18.7435508 L99.3088228,18.7435508 C99.7935941,18.7435508 100.186533,18.3487609 100.186533,17.8614316 C100.186533,16.2436581 102.08809,15.361317 104.672654,15.361317 C107.695632,15.361317 109.451051,16.4886543 109.451051,19.1354559 L109.451051,21.4393961 L101.55365,21.4393961 C97.2867348,21.4393961 93.6951002,24.8240711 93.615188,29.0753311 C93.6136428,29.1549993 93.615188,29.9177273 93.6608837,30.2059972 C95.5065909,39.5342697 108.361199,36.8490765 110.215957,36.0992197 C114.795456,34.2471021 115.376476,31.2219323 115.399875,30.291879 C115.460361,27.9078269 115.399875,19.687363 115.399875,18.6942853 C115.399875,18.465711 115.390383,18.2449038 115.376476,18.0278692 C115.014663,12.432681 110.072468,10.704393 104.72122,10.704393 Z" id="Fill-1" fill="#FFFFFF"></path>
                        <path d="M33.1614754,17.0378031 C33.1614754,16.9595094 33.1672697,16.8933603 33.1752715,16.8336711 C33.17334,16.9261765 33.1636827,17.0166147 33.1650624,17.1101537 C33.1647864,17.0856061 33.1614754,17.0623506 33.1614754,17.0378031 Z M32.5730684,0 C32.0106171,0 31.5550014,0.451065702 31.5550014,1.00761703 L31.5550014,7.87541912 L31.5550014,29.4529622 L31.5550014,35.9928416 C31.5550014,36.5489343 32.0106171,37 32.5730684,37 L36.7816036,37 C37.3438232,37 37.7996706,36.5489343 37.7996706,35.9928416 L37.7996706,29.4022832 L37.7996706,7.82451084 L37.7996706,1.00761703 C37.7996706,0.451065702 37.3438232,0 36.7816036,0 L32.5730684,0 Z" id="Fill-3" fill="#FFFFFF"></path>
                        <path d="M121.239592,0 C120.677183,0 120.221369,0.728309441 120.221369,1.28463145 L120.221369,7.87518981 L120.221369,29.4529622 L120.221369,35.9926123 C120.221369,36.5489343 120.677183,37 121.239592,37 L125.447583,37 C126.009993,37 126.466038,36.5489343 126.466038,35.9926123 L126.466038,29.4022832 L126.466038,7.82428153 L126.466038,1.00738771 C126.466038,0.450836386 126.009993,0 125.447583,0 L121.239592,0 Z" id="Fill-5" fill="#FFFFFF"></path>
                        <path d="M0.328726613,13.2041329 L0.328726613,24.6500648 C0.328726613,32.6325841 7.05722686,37 14.7825503,37 C21.5609482,37 28.089858,33.1847652 28.089858,25.2020185 L28.089858,18.5760727 C28.089858,18.1043991 27.7105459,17.7221024 27.242276,17.7221024 L13.4872446,17.7221024 C13.0192005,17.7221024 12.6392111,18.1043991 12.6392111,18.5760727 L12.6392111,22.8923187 C12.6392111,23.3637649 13.0192005,23.746289 13.4872446,23.746289 L20.9624027,23.746289 C21.4306725,23.746289 21.8102104,24.1285857 21.8102104,24.6002594 C21.8102104,29.2685549 18.5208067,31.0756517 14.7825503,31.0756517 C10.5961186,31.0756517 6.90798561,28.6165354 6.90798561,24.2984701 L6.90798561,12.8520834 C6.90798561,7.73121769 11.1443149,5.92412089 14.5335139,5.92412089 C17.77302,5.92412089 21.8102104,7.28023947 21.8102104,11.9483075 C21.8102104,12.2257626 22.0339594,12.451138 22.3091865,12.451138 L27.242276,12.451138 C27.7105459,12.451138 28.089858,12.0686139 28.089858,11.5969402 L28.089858,11.3465484 C28.089858,3.36380176 21.3116859,0 14.5335139,0 C6.75806701,0 0.328726613,4.71969292 0.328726613,13.2041329 Z" id="Fill-7" fill="#FFFFFF"></path>
                        <path d="M84.865053,26.8579754 C84.865053,30.5370422 82.073339,31.8796934 79.5303693,31.8796934 C76.389014,31.8796934 73.9959228,30.0398224 73.9959228,26.9570142 L73.9959228,20.6928093 C73.9959228,17.0137425 76.7880882,15.6713165 79.3306065,15.6713165 C82.4715104,15.6713165 84.865053,17.4609928 84.865053,20.5433508 L84.865053,26.8579754 Z M73.8510101,12.7886118 L73.8510101,0.988812508 C73.8510101,0.44274851 73.4070174,0 72.8591932,0 L68.7603305,0 C68.2125063,0 67.7685137,0.44274851 67.7685137,0.988812508 L67.7685137,24.0891653 C67.8136578,24.1364339 67.8597048,24.1796508 67.9062033,24.2197165 C67.8326183,24.320556 67.7863456,24.3835807 67.7732538,24.4011376 L67.8136578,27.0067587 C67.8136578,33.5201363 73.34833,37 79.5303693,37 C85.164133,37 91.047318,33.2216693 91.047318,26.310786 L91.047318,21.09009 C91.047318,14.5776128 86.1855192,10.0110232 79.3306065,10.5008152 C77.3237235,10.6439713 75.4676219,11.4898528 73.8510101,12.7886118 Z" id="Fill-9" fill="#FFFFFF"></path>
                        <path d="M57.9017297,26.9358383 C57.9017297,30.5868023 55.1626158,31.9186693 52.667781,31.9186693 C49.5856135,31.9186693 47.2378332,30.0931873 47.2378332,27.0341146 L47.2378332,20.8181395 C47.2378332,17.1673989 49.9771686,15.8350852 52.4722249,15.8350852 C55.5535065,15.8350852 57.9017297,17.6112057 57.9017297,20.6698317 L57.9017297,26.9358383 Z M41.1716085,21.3110844 L41.1716085,27.0836994 C41.1716085,33.5467053 46.6019992,37 52.667781,37 C58.195396,37 63.9679544,33.250313 63.9679544,26.3928618 L63.9679544,21.2123615 C63.9679544,14.7500256 58.5377852,10.704393 52.4722249,10.704393 C46.9441669,10.704393 41.1716085,14.4536333 41.1716085,21.3110844 Z" id="Fill-11" fill="#FFFFFF"></path>
                        <path d="M68.465,24.8422857 C68.465,24.8422857 68.47028,24.837808 68.476088,24.8314645 L68.465,24.3142857 L68.465,24.8422857 Z" id="Fill-13" fill="#009FE3"></path>
                        <path d="M187.738237,21.3366221 C187.738237,14.8774761 183.130283,10.704393 175.996707,10.704393 C171.149919,10.704393 164.912648,14.4512725 164.98457,16.8251564 C164.986605,16.9061871 164.97394,17.1040107 164.977785,17.1818727 L164.977785,34.8173759 L164.978011,36.0264994 C164.978011,36.56429 165.431479,37 165.991245,37 L171.216413,37 C171.776179,37 172.206125,36.56429 172.206125,36.0264994 L172.212684,19.5322168 C172.120407,18.4444131 173.405722,17.1381885 176.359481,17.1381885 C179.746578,17.1381885 180.459234,19.3495582 180.459234,21.1996846 L180.505599,36.0264994 C180.505599,36.56429 180.959293,37 181.519059,37 L186.725002,37 C187.284317,37 187.738237,36.56429 187.738237,36.0264994 L187.738237,21.3366221 Z" id="Fill-15" fill="#FFFFFF"></path>
                        <path d="M207.051827,21.2520544 L198.111013,21.2520544 L198.111013,20.76555 C198.111013,17.5093075 200.431023,16.148149 202.750815,16.148149 C204.973903,16.148149 207.051827,17.4603497 207.051827,20.4742181 L207.051827,21.2520544 Z M190.958013,21.8838954 L190.958013,26.6955908 C190.958013,33.7924958 196.75782,37 202.992464,37 C206.868898,37 210.499098,35.7606871 212.860147,33.0146595 C213.196535,32.6234362 213.160517,32.030015 212.785055,31.6761138 L210.292812,29.3285544 C209.931975,28.9882648 209.376203,28.9810199 209.004015,29.3085761 C207.61895,30.526813 205.405685,31.4592066 203.620491,31.4592066 C200.769376,31.4592066 198.111013,29.9035341 198.111013,26.841586 L198.111013,25.675161 L212.856654,25.675161 C213.387759,25.675161 213.818013,25.2422248 213.818013,24.7082993 L213.818013,20.76555 C213.818013,14.0093737 208.405239,10.704393 202.8473,10.704393 C196.612874,10.704393 190.958013,14.4956586 190.958013,21.8838954 Z" id="Fill-17" fill="#FFFFFF"></path>
                        <path d="M133.97206,32.5268887 L133.915197,32.4649134 C131.929646,30.2919991 130.922376,27.5270979 130.922376,24.2466238 L130.922376,13.5146664 C130.922376,4.71771791 138.316679,0.114880414 145.621114,0.114880414 C149.654431,0.114880414 153.355039,1.31129385 156.040349,3.48376384 C158.991469,5.87081522 160.551321,9.26479978 160.551321,13.2985301 L160.551321,16.6340934 L160.512074,16.673189 C158.417033,18.761026 156.037004,21.0112428 152.832561,23.318326 L152.618708,23.4727091 L152.618708,13.0181971 C152.618708,10.0915823 150.444503,6.94194511 145.671065,6.94194511 C140.690464,6.94194511 138.923003,10.2955013 138.923003,13.1670268 L138.923003,23.998278 C138.923003,25.7349212 139.539362,27.2327704 140.704736,28.3296678 C141.110141,28.7108497 141.57308,29.0389415 142.081286,29.3043916 L142.325912,29.4321186 L142.07415,29.545629 C139.491418,30.7116101 136.792506,31.7063259 134.052562,32.5033425 L133.97206,32.5268887 Z M145.870646,37 C143.972287,37 142.15153,36.7616503 140.458103,36.2911706 L140.118258,36.1963194 L140.434688,36.0412699 C152.46105,30.1362832 158.741045,23.0688696 160.379169,21.0436744 L160.619112,20.7469034 L160.619112,23.600214 C160.619112,27.7339046 159.012876,31.2107451 155.974119,33.6539964 C153.291039,35.8120277 149.702598,37 145.870646,37 Z" id="Fill-19" fill="#FFFFFF"></path>
                    </g>
                </g>
            </g>
        </g>
    </g>
</svg>